<svg width="116" height="116" viewBox="0 0 116 116" fill="none" xmlns="http://www.w3.org/2000/svg">
<mask id="mask0_3001_17" style="mask-type:luminance" maskUnits="userSpaceOnUse" x="0" y="0" width="116" height="116">
<path d="M116 0H0V116H116V0Z" fill="white"/>
</mask>
<g mask="url(#mask0_3001_17)">
<path d="M94.7511 32.7025C96.745 32.1681 98.5083 30.9928 99.7688 29.3576C101.029 27.7224 101.716 25.718 101.725 23.6536V23.6291C101.725 21.1479 100.74 18.7683 98.9848 17.0139C97.2305 15.2594 94.8508 14.2738 92.3699 14.2738H92.3459C90.2815 14.2828 88.2776 14.9705 86.6428 16.2307C85.008 17.491 83.8325 19.2539 83.2986 21.2478C81.7702 26.784 78.4677 31.6659 73.8984 35.145C69.3286 38.624 63.744 40.508 58.0008 40.508C52.2575 40.508 46.6728 38.624 42.1032 35.145C37.5335 31.6659 34.2313 26.784 32.703 21.2478C32.1684 19.2541 30.9929 17.4914 29.3579 16.2315C27.7228 14.9715 25.7188 14.2841 23.6546 14.2754H23.6301C21.1489 14.2754 18.7693 15.261 17.0149 17.0154C15.2604 18.7699 14.2748 21.1495 14.2748 23.6306V23.6552C14.2839 25.7194 14.9716 27.7233 16.2318 29.3582C17.4921 30.9931 19.255 32.1682 21.2489 32.7025C26.785 34.2308 31.667 37.533 35.146 42.1027C38.625 46.6723 40.509 52.257 40.509 58.0002C40.509 63.7434 38.625 69.328 35.146 73.8979C31.667 78.4677 26.785 81.7697 21.2489 83.298C19.2551 83.8325 17.4923 85.0075 16.2322 86.6423C14.9721 88.2771 14.2845 90.2809 14.2753 92.3448V92.3693C14.2753 94.8508 15.261 97.2299 17.0154 98.9848C18.7699 100.739 21.1494 101.725 23.6306 101.725H23.6551C25.7194 101.716 27.7233 101.028 29.3582 99.7677C30.993 98.5072 32.1682 96.7445 32.7024 94.7505C34.2308 89.2145 37.5331 84.3326 42.1027 80.8536C46.6723 77.3742 52.257 75.4904 58.0002 75.4904C63.7435 75.4904 69.328 77.3742 73.8979 80.8536C78.4672 84.3326 81.7697 89.2145 83.298 94.7505C83.832 96.7445 85.0075 98.5077 86.6423 99.7682C88.2771 101.028 90.2815 101.716 92.3459 101.725H92.3704C94.8513 101.725 97.231 100.739 98.9853 98.9848C100.74 97.2304 101.726 94.8508 101.726 92.3698V92.3448C101.717 90.2804 101.029 88.2766 99.7688 86.6418C98.5083 85.0069 96.7455 83.832 94.7516 83.2975C89.2156 81.7692 84.3336 78.4672 80.8547 73.8973C77.3752 69.3275 75.4915 63.7429 75.4915 57.9997C75.4915 52.2565 77.3752 46.6718 80.8547 42.1022C84.3336 37.5325 89.2156 34.2303 94.7516 32.702L94.7511 32.7025Z" fill="url(#paint0_linear_3001_17)"/>
<path d="M12.2376 5.53746C12.5385 5.83675 12.9252 6.03484 13.344 6.10416C13.7627 6.17348 14.1926 6.11058 14.5739 5.92424C18.0532 4.24397 21.968 3.68433 25.7787 4.32247C29.5895 4.96061 33.1084 6.76513 35.8505 9.4872C36.2285 9.86808 36.7393 10.0877 37.2758 10.1C37.8122 10.1123 38.3326 9.91621 38.7276 9.55297C38.9238 9.36564 39.0807 9.14098 39.1889 8.89216C39.2971 8.64333 39.3545 8.37541 39.3576 8.10409C39.3608 7.83277 39.3097 7.56359 39.2073 7.31231C39.1049 7.06103 38.9534 6.83278 38.7615 6.6409C35.4177 3.30532 31.1187 1.09307 26.4608 0.311055C21.8029 -0.47096 17.0172 0.216034 12.7674 2.27673C12.4781 2.4202 12.227 2.63059 12.0353 2.89046C11.8435 3.15033 11.7165 3.45218 11.6646 3.77097C11.6128 4.08976 11.6378 4.4163 11.7374 4.72352C11.8371 5.03073 12.0085 5.30977 12.2376 5.53746Z" fill="url(#paint1_linear_3001_17)"/>
<path d="M2.28357 12.7518C0.22539 16.9879 -0.467474 21.7583 0.300568 26.4048C1.06861 31.0515 3.2597 35.3452 6.57156 38.6937C6.91982 39.0596 7.38881 39.2871 7.89183 39.334C8.3948 39.381 8.89777 39.2441 9.30772 38.9489C9.53995 38.7734 9.73188 38.5502 9.87051 38.2942C10.0091 38.0383 10.0913 37.7555 10.1113 37.4652C10.1314 37.1748 10.089 36.8835 9.98696 36.6109C9.88487 36.3382 9.72551 36.0907 9.51964 35.885C6.78363 33.1423 4.96828 29.6166 4.32513 25.7963C3.68198 21.976 4.24286 18.0503 5.93006 14.563C6.11781 14.1812 6.18175 13.7504 6.11295 13.3306C6.04421 12.9107 5.84612 12.5228 5.54641 12.2209C5.31852 11.9917 5.03929 11.8201 4.73183 11.7204C4.42438 11.6208 4.09758 11.5958 3.77856 11.6477C3.45955 11.6996 3.1575 11.8268 2.8975 12.0189C2.6375 12.2109 2.42703 12.4621 2.28357 12.7518Z" fill="url(#paint2_linear_3001_17)"/>
<path d="M101.428 110.076C97.9477 111.757 94.0319 112.316 90.2199 111.677C86.4085 111.038 82.8889 109.232 80.1469 106.508C79.7696 106.13 79.2606 105.911 78.7261 105.899C78.1911 105.886 77.6728 106.082 77.2787 106.443C77.0814 106.63 76.9238 106.855 76.8147 107.104C76.7061 107.353 76.6482 107.621 76.6445 107.893C76.6409 108.165 76.692 108.435 76.7943 108.687C76.8966 108.939 77.0485 109.167 77.2406 109.359C80.5844 112.695 84.8833 114.907 89.5414 115.689C94.1989 116.471 98.9848 115.784 103.235 113.724C103.524 113.58 103.775 113.37 103.967 113.11C104.159 112.85 104.285 112.548 104.337 112.229C104.389 111.91 104.364 111.584 104.264 111.277C104.164 110.969 103.993 110.691 103.763 110.463C103.463 110.164 103.076 109.966 102.657 109.897C102.239 109.827 101.809 109.89 101.428 110.076Z" fill="url(#paint3_linear_3001_17)"/>
<path d="M106.443 77.2771C106.082 77.6711 105.886 78.1895 105.899 78.7245C105.911 79.259 106.13 79.7684 106.509 80.1453C109.234 82.8893 111.041 86.4121 111.678 90.2266C112.316 94.0417 111.753 97.9601 110.068 101.442C109.881 101.823 109.818 102.253 109.887 102.672C109.957 103.092 110.154 103.479 110.454 103.78C110.682 104.009 110.96 104.18 111.267 104.281C111.574 104.38 111.9 104.405 112.219 104.354C112.538 104.302 112.84 104.176 113.099 103.984C113.359 103.793 113.57 103.542 113.714 103.253C115.781 99.002 116.472 94.2129 115.693 89.5512C114.913 84.8889 112.7 80.5858 109.362 77.239C109.17 77.0463 108.941 76.8945 108.689 76.7916C108.437 76.6888 108.167 76.6376 107.895 76.6413C107.622 76.6449 107.354 76.7029 107.105 76.8125C106.855 76.9216 106.631 77.0792 106.443 77.2771Z" fill="url(#paint4_linear_3001_17)"/>
<path d="M110.072 14.5656C111.755 18.0464 112.316 21.964 111.678 25.7774C111.04 29.5908 109.233 33.112 106.509 35.8551C106.13 36.2322 105.911 36.7413 105.899 37.2758C105.886 37.8104 106.082 38.3289 106.443 38.7228C106.63 38.9201 106.855 39.0778 107.104 39.1868C107.353 39.2958 107.621 39.3538 107.893 39.3574C108.165 39.361 108.435 39.3101 108.687 39.2078C108.938 39.1054 109.167 38.9537 109.36 38.7615C112.696 35.4161 114.91 31.1148 115.69 26.4546C116.472 21.7944 115.783 17.0066 113.719 12.7559C113.575 12.4667 113.365 12.2159 113.105 12.0243C112.845 11.8327 112.543 11.7059 112.224 11.6543C111.906 11.6028 111.579 11.6279 111.272 11.7277C110.965 11.8275 110.686 11.999 110.458 12.2282C110.159 12.5293 109.961 12.9162 109.891 13.3351C109.823 13.7541 109.886 14.1841 110.072 14.5656Z" fill="url(#paint5_linear_3001_17)"/>
<path d="M80.1454 9.49193C82.8883 6.76688 86.4095 4.96049 90.223 4.3221C94.0365 3.6837 97.9539 4.2448 101.435 5.92791C101.817 6.11473 102.247 6.17794 102.665 6.10878C103.084 6.03967 103.471 5.84158 103.772 5.54218C104.001 5.31465 104.173 5.03574 104.273 4.72863C104.373 4.42151 104.398 4.09503 104.346 3.77626C104.295 3.45748 104.168 3.1556 103.976 2.89564C103.785 2.63568 103.534 2.42514 103.245 2.28146C98.9937 0.217539 94.2062 -0.471652 89.546 0.309574C84.8859 1.0908 80.5843 3.30367 77.239 6.64093C77.0469 6.83317 76.8951 7.06189 76.7928 7.31369C76.6904 7.56554 76.6393 7.8353 76.6429 8.10709C76.6466 8.37893 76.7045 8.64727 76.8131 8.89631C76.9222 9.14539 77.0798 9.3701 77.2771 9.55717C77.6712 9.91869 78.1895 10.1137 78.7246 10.1016C79.2591 10.0894 79.768 9.87098 80.1454 9.49193Z" fill="url(#paint6_linear_3001_17)"/>
<path d="M35.8552 106.508C33.1121 109.233 29.5908 111.04 25.7774 111.678C21.964 112.316 18.0465 111.755 14.5656 110.072C14.1842 109.886 13.7541 109.822 13.3352 109.891C12.9163 109.961 12.5293 110.159 12.2282 110.458C11.9991 110.686 11.8275 110.965 11.7277 111.272C11.6279 111.579 11.6028 111.906 11.6543 112.224C11.706 112.543 11.8328 112.845 12.0244 113.105C12.2159 113.365 12.4667 113.575 12.7559 113.719C17.0066 115.783 21.7944 116.472 26.4546 115.69C31.1148 114.91 35.4162 112.696 38.7615 109.359C38.9537 109.167 39.1055 108.938 39.2078 108.687C39.3101 108.435 39.361 108.165 39.3574 107.893C39.3538 107.621 39.2958 107.353 39.1868 107.104C39.0779 106.855 38.9201 106.63 38.7229 106.443C38.329 106.081 37.8105 105.886 37.2759 105.898C36.7413 105.911 36.2321 106.129 35.8552 106.508Z" fill="url(#paint7_linear_3001_17)"/>
<path d="M5.92853 101.435C4.24517 97.9539 3.68391 94.0365 4.32221 90.223C4.96052 86.4095 6.76692 82.8883 9.49202 80.1453C9.87102 79.7679 10.0895 79.259 10.1017 78.7245C10.1138 78.1895 9.91873 77.6712 9.55726 77.2771C9.37014 77.0798 9.14543 76.9221 8.8964 76.813C8.64731 76.7045 8.37897 76.6465 8.10718 76.6429C7.83539 76.6392 7.56558 76.6904 7.31378 76.7927C7.06199 76.895 6.83321 77.0469 6.64102 77.239C3.30374 80.5843 1.09086 84.8858 0.309635 89.546C-0.471591 94.2061 0.2176 98.9936 2.28152 103.245C2.42519 103.534 2.63574 103.785 2.8957 103.976C3.15566 104.168 3.45754 104.295 3.77632 104.346C4.09509 104.398 4.42159 104.373 4.7287 104.273C5.03581 104.173 5.31469 104.001 5.54227 103.772C5.84162 103.471 6.03966 103.084 6.10892 102.665C6.17813 102.247 6.11508 101.816 5.92853 101.435Z" fill="url(#paint8_linear_3001_17)"/>
</g>
<defs>
<linearGradient id="paint0_linear_3001_17" x1="58.0002" y1="109.683" x2="58.0002" y2="41.4711" gradientUnits="userSpaceOnUse">
<stop offset="0.005" stop-color="#3F51DC"/>
<stop offset="1" stop-color="#2AC3D1"/>
</linearGradient>
<linearGradient id="paint1_linear_3001_17" x1="25.498" y1="109.711" x2="25.498" y2="41.482" gradientUnits="userSpaceOnUse">
<stop offset="0.005" stop-color="#3F51DC"/>
<stop offset="1" stop-color="#2AC3D1"/>
</linearGradient>
<linearGradient id="paint2_linear_3001_17" x1="5.05609" y1="109.673" x2="5.05609" y2="41.4777" gradientUnits="userSpaceOnUse">
<stop offset="0.005" stop-color="#3F51DC"/>
<stop offset="1" stop-color="#2AC3D1"/>
</linearGradient>
<linearGradient id="paint3_linear_3001_17" x1="90.5039" y1="109.677" x2="90.5039" y2="41.4573" gradientUnits="userSpaceOnUse">
<stop offset="0.005" stop-color="#3F51DC"/>
<stop offset="1" stop-color="#2AC3D1"/>
</linearGradient>
<linearGradient id="paint4_linear_3001_17" x1="110.951" y1="109.678" x2="110.951" y2="41.4687" gradientUnits="userSpaceOnUse">
<stop offset="0.005" stop-color="#3F51DC"/>
<stop offset="1" stop-color="#2AC3D1"/>
</linearGradient>
<linearGradient id="paint5_linear_3001_17" x1="110.951" y1="109.679" x2="110.951" y2="41.465" gradientUnits="userSpaceOnUse">
<stop offset="0.005" stop-color="#3F51DC"/>
<stop offset="1" stop-color="#2AC3D1"/>
</linearGradient>
<linearGradient id="paint6_linear_3001_17" x1="90.5075" y1="109.714" x2="90.5075" y2="41.4803" gradientUnits="userSpaceOnUse">
<stop offset="0.005" stop-color="#3F51DC"/>
<stop offset="1" stop-color="#2AC3D1"/>
</linearGradient>
<linearGradient id="paint7_linear_3001_17" x1="25.4929" y1="109.677" x2="25.4929" y2="41.4531" gradientUnits="userSpaceOnUse">
<stop offset="0.005" stop-color="#3F51DC"/>
<stop offset="1" stop-color="#2AC3D1"/>
</linearGradient>
<linearGradient id="paint8_linear_3001_17" x1="5.04936" y1="109.668" x2="5.04936" y2="41.4815" gradientUnits="userSpaceOnUse">
<stop offset="0.005" stop-color="#3F51DC"/>
<stop offset="1" stop-color="#2AC3D1"/>
</linearGradient>
</defs>
</svg>
